<mxfile host="app.diagrams.net" agent="Mozilla/5.0 (Windows NT 10.0; Win64; x64) AppleWebKit/537.36 (KHTML, like Gecko) Chrome/138.0.0.0 Safari/537.36" version="28.0.5" pages="2">
  <diagram name="Fluxograma" id="GVnZGxFAwTkj9lPQX75z">
    <mxGraphModel dx="2977" dy="1629" grid="1" gridSize="10" guides="1" tooltips="1" connect="1" arrows="1" fold="1" page="1" pageScale="1" pageWidth="827" pageHeight="1169" math="0" shadow="0">
      <root>
        <mxCell id="0" />
        <mxCell id="1" parent="0" />
        <mxCell id="YuFYxytRZ9CGdBraHno3-10" style="edgeStyle=orthogonalEdgeStyle;rounded=0;orthogonalLoop=1;jettySize=auto;html=1;entryX=0.5;entryY=0;entryDx=0;entryDy=0;" parent="1" source="YuFYxytRZ9CGdBraHno3-1" target="YuFYxytRZ9CGdBraHno3-2" edge="1">
          <mxGeometry relative="1" as="geometry" />
        </mxCell>
        <mxCell id="YuFYxytRZ9CGdBraHno3-23" style="edgeStyle=orthogonalEdgeStyle;rounded=0;orthogonalLoop=1;jettySize=auto;html=1;" parent="1" source="YuFYxytRZ9CGdBraHno3-1" target="YuFYxytRZ9CGdBraHno3-22" edge="1">
          <mxGeometry relative="1" as="geometry" />
        </mxCell>
        <mxCell id="YuFYxytRZ9CGdBraHno3-1" value="&lt;div&gt;Gestão de Pós Vendas de Veículos&lt;/div&gt;&lt;div&gt;Inteligência de manutenção corretiva e preventiva&lt;/div&gt;" style="ellipse;whiteSpace=wrap;html=1;" parent="1" vertex="1">
          <mxGeometry x="490" y="420" width="330" height="150" as="geometry" />
        </mxCell>
        <mxCell id="YuFYxytRZ9CGdBraHno3-12" style="edgeStyle=orthogonalEdgeStyle;rounded=0;orthogonalLoop=1;jettySize=auto;html=1;entryX=0.5;entryY=0;entryDx=0;entryDy=0;" parent="1" source="YuFYxytRZ9CGdBraHno3-2" target="YuFYxytRZ9CGdBraHno3-3" edge="1">
          <mxGeometry relative="1" as="geometry">
            <Array as="points">
              <mxPoint x="430" y="675" />
            </Array>
          </mxGeometry>
        </mxCell>
        <mxCell id="YuFYxytRZ9CGdBraHno3-2" value="&lt;div&gt;Cadastrar veículo&lt;/div&gt;&lt;div&gt;&lt;br&gt;&lt;/div&gt;&lt;div&gt;Fabricante, Ano e Modelo&lt;/div&gt;&lt;div&gt;&lt;br&gt;&lt;/div&gt;&lt;div&gt;Data da venda&lt;/div&gt;" style="rounded=0;whiteSpace=wrap;html=1;" parent="1" vertex="1">
          <mxGeometry x="532.5" y="630" width="245" height="90" as="geometry" />
        </mxCell>
        <mxCell id="YuFYxytRZ9CGdBraHno3-3" value="&lt;div&gt;Coletar Feeback do comprador&lt;/div&gt;&lt;div&gt;&lt;br&gt;&lt;/div&gt;&lt;div&gt;Elogios, Reclamações&amp;nbsp;&lt;/div&gt;" style="rounded=1;whiteSpace=wrap;html=1;" parent="1" vertex="1">
          <mxGeometry x="270" y="870" width="320" height="130" as="geometry" />
        </mxCell>
        <mxCell id="YuFYxytRZ9CGdBraHno3-4" value="Orçamento de peças para reparo" style="rounded=1;whiteSpace=wrap;html=1;" parent="1" vertex="1">
          <mxGeometry x="573.75" y="1580" width="200" height="80" as="geometry" />
        </mxCell>
        <mxCell id="YuFYxytRZ9CGdBraHno3-18" style="edgeStyle=orthogonalEdgeStyle;rounded=0;orthogonalLoop=1;jettySize=auto;html=1;entryX=1;entryY=0.5;entryDx=0;entryDy=0;" parent="1" source="YuFYxytRZ9CGdBraHno3-7" target="YuFYxytRZ9CGdBraHno3-17" edge="1">
          <mxGeometry relative="1" as="geometry" />
        </mxCell>
        <mxCell id="YuFYxytRZ9CGdBraHno3-20" style="edgeStyle=orthogonalEdgeStyle;rounded=0;orthogonalLoop=1;jettySize=auto;html=1;entryX=0;entryY=0.5;entryDx=0;entryDy=0;" parent="1" source="YuFYxytRZ9CGdBraHno3-7" target="YuFYxytRZ9CGdBraHno3-19" edge="1">
          <mxGeometry relative="1" as="geometry" />
        </mxCell>
        <mxCell id="YuFYxytRZ9CGdBraHno3-7" value="&lt;div&gt;Realizar manutenção ?&lt;/div&gt;&lt;div&gt;3 meses&lt;/div&gt;" style="rhombus;whiteSpace=wrap;html=1;" parent="1" vertex="1">
          <mxGeometry x="790" y="1320" width="232.5" height="170" as="geometry" />
        </mxCell>
        <mxCell id="YuFYxytRZ9CGdBraHno3-9" value="&lt;div&gt;Diagnostico&lt;br&gt;&lt;br&gt;&lt;/div&gt;&lt;div&gt;Diagnostico profissionalizado&lt;/div&gt;" style="whiteSpace=wrap;html=1;" parent="1" vertex="1">
          <mxGeometry x="792.5" y="1120" width="220" height="90" as="geometry" />
        </mxCell>
        <mxCell id="YuFYxytRZ9CGdBraHno3-17" value="SIM" style="rounded=1;whiteSpace=wrap;html=1;" parent="1" vertex="1">
          <mxGeometry x="613.75" y="1375" width="120" height="60" as="geometry" />
        </mxCell>
        <mxCell id="YuFYxytRZ9CGdBraHno3-19" value="NÃO" style="rounded=1;whiteSpace=wrap;html=1;" parent="1" vertex="1">
          <mxGeometry x="1083.75" y="1375" width="120" height="60" as="geometry" />
        </mxCell>
        <mxCell id="YuFYxytRZ9CGdBraHno3-26" style="edgeStyle=orthogonalEdgeStyle;rounded=0;orthogonalLoop=1;jettySize=auto;html=1;entryX=0.5;entryY=0;entryDx=0;entryDy=0;" parent="1" source="YuFYxytRZ9CGdBraHno3-22" target="YuFYxytRZ9CGdBraHno3-24" edge="1">
          <mxGeometry relative="1" as="geometry" />
        </mxCell>
        <mxCell id="YuFYxytRZ9CGdBraHno3-22" value="Consulta de hisórico de veículos vendidos" style="rounded=1;whiteSpace=wrap;html=1;" parent="1" vertex="1">
          <mxGeometry x="1230" y="630" width="240" height="140" as="geometry" />
        </mxCell>
        <mxCell id="YuFYxytRZ9CGdBraHno3-24" value="&lt;div&gt;Levantamento de indicadores&lt;/div&gt;&lt;div&gt;&lt;br&gt;&lt;/div&gt;&lt;div&gt;Criticidade e custo R$&lt;/div&gt;" style="rounded=1;whiteSpace=wrap;html=1;" parent="1" vertex="1">
          <mxGeometry x="1236.25" y="840" width="227.5" height="120" as="geometry" />
        </mxCell>
        <mxCell id="CFeagg2gzZAzhv6-wUmk-1" value="Abertura de chamado&lt;br&gt;&lt;br&gt;Descrição do problema informado pelo comprador" style="whiteSpace=wrap;html=1;" vertex="1" parent="1">
          <mxGeometry x="798.75" y="880" width="220" height="90" as="geometry" />
        </mxCell>
        <mxCell id="CFeagg2gzZAzhv6-wUmk-2" value="" style="endArrow=classic;html=1;rounded=0;exitX=0.5;exitY=1;exitDx=0;exitDy=0;entryX=0.5;entryY=0;entryDx=0;entryDy=0;" edge="1" parent="1" source="YuFYxytRZ9CGdBraHno3-17" target="YuFYxytRZ9CGdBraHno3-4">
          <mxGeometry width="50" height="50" relative="1" as="geometry">
            <mxPoint x="610" y="1450" as="sourcePoint" />
            <mxPoint x="660" y="1400" as="targetPoint" />
          </mxGeometry>
        </mxCell>
        <mxCell id="CFeagg2gzZAzhv6-wUmk-3" value="" style="endArrow=classic;html=1;rounded=0;exitX=0.519;exitY=1.002;exitDx=0;exitDy=0;exitPerimeter=0;entryX=0.5;entryY=0;entryDx=0;entryDy=0;" edge="1" parent="1" source="YuFYxytRZ9CGdBraHno3-9" target="YuFYxytRZ9CGdBraHno3-7">
          <mxGeometry width="50" height="50" relative="1" as="geometry">
            <mxPoint x="905.66" y="1250" as="sourcePoint" />
            <mxPoint x="910" y="1320" as="targetPoint" />
          </mxGeometry>
        </mxCell>
        <mxCell id="CFeagg2gzZAzhv6-wUmk-4" value="" style="endArrow=classic;html=1;rounded=0;entryX=0.534;entryY=0.024;entryDx=0;entryDy=0;entryPerimeter=0;exitX=0.5;exitY=1;exitDx=0;exitDy=0;" edge="1" parent="1" source="CFeagg2gzZAzhv6-wUmk-1" target="YuFYxytRZ9CGdBraHno3-9">
          <mxGeometry width="50" height="50" relative="1" as="geometry">
            <mxPoint x="860" y="990" as="sourcePoint" />
            <mxPoint x="910" y="940" as="targetPoint" />
          </mxGeometry>
        </mxCell>
        <mxCell id="CFeagg2gzZAzhv6-wUmk-5" value="" style="endArrow=classic;html=1;rounded=0;entryX=0.508;entryY=0;entryDx=0;entryDy=0;entryPerimeter=0;exitX=0.5;exitY=1;exitDx=0;exitDy=0;" edge="1" parent="1" target="CFeagg2gzZAzhv6-wUmk-1">
          <mxGeometry width="50" height="50" relative="1" as="geometry">
            <mxPoint x="910" y="718" as="sourcePoint" />
            <mxPoint x="911" y="870" as="targetPoint" />
          </mxGeometry>
        </mxCell>
        <mxCell id="CFeagg2gzZAzhv6-wUmk-6" value="" style="endArrow=classic;html=1;rounded=0;entryX=0.508;entryY=0;entryDx=0;entryDy=0;entryPerimeter=0;exitX=1;exitY=0.5;exitDx=0;exitDy=0;" edge="1" parent="1" source="YuFYxytRZ9CGdBraHno3-2" target="CFeagg2gzZAzhv6-wUmk-1">
          <mxGeometry width="50" height="50" relative="1" as="geometry">
            <mxPoint x="911" y="680" as="sourcePoint" />
            <mxPoint x="911" y="880" as="targetPoint" />
            <Array as="points">
              <mxPoint x="909" y="675" />
            </Array>
          </mxGeometry>
        </mxCell>
      </root>
    </mxGraphModel>
  </diagram>
  <diagram id="R5nwQMpMtPQKWBAanMT7" name="Diagrama de Classes">
    <mxGraphModel dx="2253" dy="785" grid="1" gridSize="10" guides="1" tooltips="1" connect="1" arrows="1" fold="1" page="1" pageScale="1" pageWidth="827" pageHeight="1169" math="0" shadow="0">
      <root>
        <mxCell id="0" />
        <mxCell id="1" parent="0" />
        <mxCell id="CAf2f87rdy_Ww8BMXTLy-1" value="Veiculo" style="swimlane;fontStyle=0;childLayout=stackLayout;horizontal=1;startSize=30;horizontalStack=0;resizeParent=1;resizeParentMax=0;resizeLast=0;collapsible=1;marginBottom=0;whiteSpace=wrap;html=1;" parent="1" vertex="1">
          <mxGeometry x="145" y="750" width="140" height="210" as="geometry" />
        </mxCell>
        <mxCell id="CAf2f87rdy_Ww8BMXTLy-2" value="id&lt;span style=&quot;white-space: pre;&quot;&gt; int PK&#x9;&lt;/span&gt;" style="text;strokeColor=none;fillColor=none;align=left;verticalAlign=middle;spacingLeft=4;spacingRight=4;overflow=hidden;points=[[0,0.5],[1,0.5]];portConstraint=eastwest;rotatable=0;whiteSpace=wrap;html=1;" parent="CAf2f87rdy_Ww8BMXTLy-1" vertex="1">
          <mxGeometry y="30" width="140" height="30" as="geometry" />
        </mxCell>
        <mxCell id="CAf2f87rdy_Ww8BMXTLy-3" value="fabricante varchar" style="text;strokeColor=none;fillColor=none;align=left;verticalAlign=middle;spacingLeft=4;spacingRight=4;overflow=hidden;points=[[0,0.5],[1,0.5]];portConstraint=eastwest;rotatable=0;whiteSpace=wrap;html=1;" parent="CAf2f87rdy_Ww8BMXTLy-1" vertex="1">
          <mxGeometry y="60" width="140" height="30" as="geometry" />
        </mxCell>
        <mxCell id="CAf2f87rdy_Ww8BMXTLy-4" value="modelo varchar" style="text;strokeColor=none;fillColor=none;align=left;verticalAlign=middle;spacingLeft=4;spacingRight=4;overflow=hidden;points=[[0,0.5],[1,0.5]];portConstraint=eastwest;rotatable=0;whiteSpace=wrap;html=1;" parent="CAf2f87rdy_Ww8BMXTLy-1" vertex="1">
          <mxGeometry y="90" width="140" height="30" as="geometry" />
        </mxCell>
        <mxCell id="jXe8uH4fgMEEkt8Xfo94-1" value="ano int" style="text;strokeColor=none;fillColor=none;align=left;verticalAlign=middle;spacingLeft=4;spacingRight=4;overflow=hidden;points=[[0,0.5],[1,0.5]];portConstraint=eastwest;rotatable=0;whiteSpace=wrap;html=1;" parent="CAf2f87rdy_Ww8BMXTLy-1" vertex="1">
          <mxGeometry y="120" width="140" height="30" as="geometry" />
        </mxCell>
        <mxCell id="CAf2f87rdy_Ww8BMXTLy-5" value="motor varchar" style="text;strokeColor=none;fillColor=none;align=left;verticalAlign=middle;spacingLeft=4;spacingRight=4;overflow=hidden;points=[[0,0.5],[1,0.5]];portConstraint=eastwest;rotatable=0;whiteSpace=wrap;html=1;" parent="CAf2f87rdy_Ww8BMXTLy-1" vertex="1">
          <mxGeometry y="150" width="140" height="30" as="geometry" />
        </mxCell>
        <mxCell id="4VH_vNqvtU9ruZNy9zTj-1" value="cambio varchar" style="text;strokeColor=none;fillColor=none;align=left;verticalAlign=middle;spacingLeft=4;spacingRight=4;overflow=hidden;points=[[0,0.5],[1,0.5]];portConstraint=eastwest;rotatable=0;whiteSpace=wrap;html=1;" parent="CAf2f87rdy_Ww8BMXTLy-1" vertex="1">
          <mxGeometry y="180" width="140" height="30" as="geometry" />
        </mxCell>
        <mxCell id="CAf2f87rdy_Ww8BMXTLy-6" value="Venda" style="swimlane;fontStyle=0;childLayout=stackLayout;horizontal=1;startSize=30;horizontalStack=0;resizeParent=1;resizeParentMax=0;resizeLast=0;collapsible=1;marginBottom=0;whiteSpace=wrap;html=1;" parent="1" vertex="1">
          <mxGeometry x="580" y="750" width="140" height="150" as="geometry" />
        </mxCell>
        <mxCell id="CAf2f87rdy_Ww8BMXTLy-7" value="id int PK" style="text;strokeColor=none;fillColor=none;align=left;verticalAlign=middle;spacingLeft=4;spacingRight=4;overflow=hidden;points=[[0,0.5],[1,0.5]];portConstraint=eastwest;rotatable=0;whiteSpace=wrap;html=1;" parent="CAf2f87rdy_Ww8BMXTLy-6" vertex="1">
          <mxGeometry y="30" width="140" height="30" as="geometry" />
        </mxCell>
        <mxCell id="CAf2f87rdy_Ww8BMXTLy-9" value="data date" style="text;strokeColor=none;fillColor=none;align=left;verticalAlign=middle;spacingLeft=4;spacingRight=4;overflow=hidden;points=[[0,0.5],[1,0.5]];portConstraint=eastwest;rotatable=0;whiteSpace=wrap;html=1;" parent="CAf2f87rdy_Ww8BMXTLy-6" vertex="1">
          <mxGeometry y="60" width="140" height="30" as="geometry" />
        </mxCell>
        <mxCell id="CAf2f87rdy_Ww8BMXTLy-10" value="comprador varchar" style="text;strokeColor=none;fillColor=none;align=left;verticalAlign=middle;spacingLeft=4;spacingRight=4;overflow=hidden;points=[[0,0.5],[1,0.5]];portConstraint=eastwest;rotatable=0;whiteSpace=wrap;html=1;" parent="CAf2f87rdy_Ww8BMXTLy-6" vertex="1">
          <mxGeometry y="90" width="140" height="30" as="geometry" />
        </mxCell>
        <mxCell id="2edBjfGkzmc34Xmbdkj1-11" value="valor float" style="text;strokeColor=none;fillColor=none;align=left;verticalAlign=middle;spacingLeft=4;spacingRight=4;overflow=hidden;points=[[0,0.5],[1,0.5]];portConstraint=eastwest;rotatable=0;whiteSpace=wrap;html=1;" parent="CAf2f87rdy_Ww8BMXTLy-6" vertex="1">
          <mxGeometry y="120" width="140" height="30" as="geometry" />
        </mxCell>
        <mxCell id="zKj9fo13ir6DBCJWVT2b-1" value="Feedback" style="swimlane;fontStyle=0;childLayout=stackLayout;horizontal=1;startSize=30;horizontalStack=0;resizeParent=1;resizeParentMax=0;resizeLast=0;collapsible=1;marginBottom=0;whiteSpace=wrap;html=1;" parent="1" vertex="1">
          <mxGeometry x="740" y="574.94" width="140" height="120" as="geometry" />
        </mxCell>
        <mxCell id="zKj9fo13ir6DBCJWVT2b-2" value="id int PK" style="text;strokeColor=none;fillColor=none;align=left;verticalAlign=middle;spacingLeft=4;spacingRight=4;overflow=hidden;points=[[0,0.5],[1,0.5]];portConstraint=eastwest;rotatable=0;whiteSpace=wrap;html=1;" parent="zKj9fo13ir6DBCJWVT2b-1" vertex="1">
          <mxGeometry y="30" width="140" height="30" as="geometry" />
        </mxCell>
        <mxCell id="zKj9fo13ir6DBCJWVT2b-3" value="id_venda_veiculo FK" style="text;strokeColor=none;fillColor=none;align=left;verticalAlign=middle;spacingLeft=4;spacingRight=4;overflow=hidden;points=[[0,0.5],[1,0.5]];portConstraint=eastwest;rotatable=0;whiteSpace=wrap;html=1;" parent="zKj9fo13ir6DBCJWVT2b-1" vertex="1">
          <mxGeometry y="60" width="140" height="30" as="geometry" />
        </mxCell>
        <mxCell id="zKj9fo13ir6DBCJWVT2b-4" value="relato varchar" style="text;strokeColor=none;fillColor=none;align=left;verticalAlign=middle;spacingLeft=4;spacingRight=4;overflow=hidden;points=[[0,0.5],[1,0.5]];portConstraint=eastwest;rotatable=0;whiteSpace=wrap;html=1;" parent="zKj9fo13ir6DBCJWVT2b-1" vertex="1">
          <mxGeometry y="90" width="140" height="30" as="geometry" />
        </mxCell>
        <mxCell id="zKj9fo13ir6DBCJWVT2b-5" value="Chamado" style="swimlane;fontStyle=0;childLayout=stackLayout;horizontal=1;startSize=30;horizontalStack=0;resizeParent=1;resizeParentMax=0;resizeLast=0;collapsible=1;marginBottom=0;whiteSpace=wrap;html=1;" parent="1" vertex="1">
          <mxGeometry x="145" y="360" width="140" height="120" as="geometry" />
        </mxCell>
        <mxCell id="zKj9fo13ir6DBCJWVT2b-6" value="id int PK" style="text;strokeColor=none;fillColor=none;align=left;verticalAlign=middle;spacingLeft=4;spacingRight=4;overflow=hidden;points=[[0,0.5],[1,0.5]];portConstraint=eastwest;rotatable=0;whiteSpace=wrap;html=1;" parent="zKj9fo13ir6DBCJWVT2b-5" vertex="1">
          <mxGeometry y="30" width="140" height="30" as="geometry" />
        </mxCell>
        <mxCell id="zKj9fo13ir6DBCJWVT2b-7" value="id_venda_veiculo FK" style="text;strokeColor=none;fillColor=none;align=left;verticalAlign=middle;spacingLeft=4;spacingRight=4;overflow=hidden;points=[[0,0.5],[1,0.5]];portConstraint=eastwest;rotatable=0;whiteSpace=wrap;html=1;" parent="zKj9fo13ir6DBCJWVT2b-5" vertex="1">
          <mxGeometry y="60" width="140" height="30" as="geometry" />
        </mxCell>
        <mxCell id="zKj9fo13ir6DBCJWVT2b-8" value="descricao varchar" style="text;strokeColor=none;fillColor=none;align=left;verticalAlign=middle;spacingLeft=4;spacingRight=4;overflow=hidden;points=[[0,0.5],[1,0.5]];portConstraint=eastwest;rotatable=0;whiteSpace=wrap;html=1;" parent="zKj9fo13ir6DBCJWVT2b-5" vertex="1">
          <mxGeometry y="90" width="140" height="30" as="geometry" />
        </mxCell>
        <mxCell id="OUtwIq7erLdHzBOknaoP-1" value="Diagnostico" style="swimlane;fontStyle=0;childLayout=stackLayout;horizontal=1;startSize=30;horizontalStack=0;resizeParent=1;resizeParentMax=0;resizeLast=0;collapsible=1;marginBottom=0;whiteSpace=wrap;html=1;" parent="1" vertex="1">
          <mxGeometry x="370" y="160" width="140" height="180" as="geometry" />
        </mxCell>
        <mxCell id="OUtwIq7erLdHzBOknaoP-2" value="id&lt;span style=&quot;white-space: pre;&quot;&gt; int PK&#x9;&lt;/span&gt;" style="text;strokeColor=none;fillColor=none;align=left;verticalAlign=middle;spacingLeft=4;spacingRight=4;overflow=hidden;points=[[0,0.5],[1,0.5]];portConstraint=eastwest;rotatable=0;whiteSpace=wrap;html=1;" parent="OUtwIq7erLdHzBOknaoP-1" vertex="1">
          <mxGeometry y="30" width="140" height="30" as="geometry" />
        </mxCell>
        <mxCell id="OUtwIq7erLdHzBOknaoP-3" value="id_chamado FK" style="text;strokeColor=none;fillColor=none;align=left;verticalAlign=middle;spacingLeft=4;spacingRight=4;overflow=hidden;points=[[0,0.5],[1,0.5]];portConstraint=eastwest;rotatable=0;whiteSpace=wrap;html=1;" parent="OUtwIq7erLdHzBOknaoP-1" vertex="1">
          <mxGeometry y="60" width="140" height="30" as="geometry" />
        </mxCell>
        <mxCell id="OUtwIq7erLdHzBOknaoP-4" value="categoria varchar" style="text;strokeColor=none;fillColor=none;align=left;verticalAlign=middle;spacingLeft=4;spacingRight=4;overflow=hidden;points=[[0,0.5],[1,0.5]];portConstraint=eastwest;rotatable=0;whiteSpace=wrap;html=1;" parent="OUtwIq7erLdHzBOknaoP-1" vertex="1">
          <mxGeometry y="90" width="140" height="30" as="geometry" />
        </mxCell>
        <mxCell id="OUtwIq7erLdHzBOknaoP-6" value="sintoma varchar" style="text;strokeColor=none;fillColor=none;align=left;verticalAlign=middle;spacingLeft=4;spacingRight=4;overflow=hidden;points=[[0,0.5],[1,0.5]];portConstraint=eastwest;rotatable=0;whiteSpace=wrap;html=1;" parent="OUtwIq7erLdHzBOknaoP-1" vertex="1">
          <mxGeometry y="120" width="140" height="30" as="geometry" />
        </mxCell>
        <mxCell id="OUtwIq7erLdHzBOknaoP-7" value="manutencao boolean" style="text;strokeColor=none;fillColor=none;align=left;verticalAlign=middle;spacingLeft=4;spacingRight=4;overflow=hidden;points=[[0,0.5],[1,0.5]];portConstraint=eastwest;rotatable=0;whiteSpace=wrap;html=1;" parent="OUtwIq7erLdHzBOknaoP-1" vertex="1">
          <mxGeometry y="150" width="140" height="30" as="geometry" />
        </mxCell>
        <mxCell id="OUtwIq7erLdHzBOknaoP-5" value="&lt;div&gt;&lt;span data-teams=&quot;true&quot;&gt;Categoria de problemas&lt;/span&gt;&lt;/div&gt;&lt;div&gt;&lt;span data-teams=&quot;true&quot;&gt;&lt;br&gt;&lt;/span&gt;&lt;/div&gt;&lt;div&gt;&lt;span data-teams=&quot;true&quot;&gt;&lt;br&gt;&lt;/span&gt;&lt;/div&gt;&lt;div&gt;&lt;span data-teams=&quot;true&quot;&gt;1. &lt;strong&gt;Motor e Transmissão&lt;/strong&gt;&lt;/span&gt;&lt;/div&gt;&lt;div&gt;&lt;span data-teams=&quot;true&quot;&gt;2. &lt;strong&gt;Sistema Elétrico e Eletrônico&lt;/strong&gt;&lt;/span&gt;&lt;/div&gt;&lt;div&gt;&lt;span data-teams=&quot;true&quot;&gt;3. &lt;strong&gt;Suspensão e Direção&lt;/strong&gt;&lt;/span&gt;&lt;/div&gt;&lt;div&gt;&lt;span data-teams=&quot;true&quot;&gt;4. &lt;strong&gt;Freios&lt;/strong&gt;&lt;/span&gt;&lt;/div&gt;&lt;div&gt;&lt;span data-teams=&quot;true&quot;&gt;5. &lt;strong&gt;Climatização e Conforto&lt;/strong&gt;&lt;/span&gt;&lt;/div&gt;&lt;div&gt;&lt;span data-teams=&quot;true&quot;&gt;6. &lt;strong&gt;Carroceria e Acabamento&lt;/strong&gt;&lt;/span&gt;&lt;/div&gt;&lt;div&gt;&lt;span data-teams=&quot;true&quot;&gt;7. &lt;strong&gt;Itens de Segurança&lt;/strong&gt;&lt;/span&gt;&lt;/div&gt;&lt;div&gt;&lt;span data-teams=&quot;true&quot;&gt;8. &lt;strong&gt;Problemas Reportados pelo Cliente (Qualitativos)&lt;/strong&gt;&lt;/span&gt;&lt;/div&gt;" style="text;html=1;align=center;verticalAlign=middle;resizable=0;points=[];autosize=1;strokeColor=none;fillColor=none;" parent="1" vertex="1">
          <mxGeometry x="-35" y="120" width="320" height="170" as="geometry" />
        </mxCell>
        <mxCell id="OUtwIq7erLdHzBOknaoP-8" value="Orcamento" style="swimlane;fontStyle=0;childLayout=stackLayout;horizontal=1;startSize=30;horizontalStack=0;resizeParent=1;resizeParentMax=0;resizeLast=0;collapsible=1;marginBottom=0;whiteSpace=wrap;html=1;" parent="1" vertex="1">
          <mxGeometry x="600" y="160" width="140" height="210" as="geometry" />
        </mxCell>
        <mxCell id="OUtwIq7erLdHzBOknaoP-9" value="id int PK" style="text;strokeColor=none;fillColor=none;align=left;verticalAlign=middle;spacingLeft=4;spacingRight=4;overflow=hidden;points=[[0,0.5],[1,0.5]];portConstraint=eastwest;rotatable=0;whiteSpace=wrap;html=1;" parent="OUtwIq7erLdHzBOknaoP-8" vertex="1">
          <mxGeometry y="30" width="140" height="30" as="geometry" />
        </mxCell>
        <mxCell id="OUtwIq7erLdHzBOknaoP-10" value="id_diagnostico FK" style="text;strokeColor=none;fillColor=none;align=left;verticalAlign=middle;spacingLeft=4;spacingRight=4;overflow=hidden;points=[[0,0.5],[1,0.5]];portConstraint=eastwest;rotatable=0;whiteSpace=wrap;html=1;" parent="OUtwIq7erLdHzBOknaoP-8" vertex="1">
          <mxGeometry y="60" width="140" height="30" as="geometry" />
        </mxCell>
        <mxCell id="2edBjfGkzmc34Xmbdkj1-14" value="id_tem FK" style="text;strokeColor=none;fillColor=none;align=left;verticalAlign=middle;spacingLeft=4;spacingRight=4;overflow=hidden;points=[[0,0.5],[1,0.5]];portConstraint=eastwest;rotatable=0;whiteSpace=wrap;html=1;" parent="OUtwIq7erLdHzBOknaoP-8" vertex="1">
          <mxGeometry y="90" width="140" height="30" as="geometry" />
        </mxCell>
        <mxCell id="OUtwIq7erLdHzBOknaoP-12" value="custo_total float" style="text;strokeColor=none;fillColor=none;align=left;verticalAlign=middle;spacingLeft=4;spacingRight=4;overflow=hidden;points=[[0,0.5],[1,0.5]];portConstraint=eastwest;rotatable=0;whiteSpace=wrap;html=1;" parent="OUtwIq7erLdHzBOknaoP-8" vertex="1">
          <mxGeometry y="120" width="140" height="30" as="geometry" />
        </mxCell>
        <mxCell id="jXe8uH4fgMEEkt8Xfo94-7" value="quantidade_item int" style="text;strokeColor=none;fillColor=none;align=left;verticalAlign=middle;spacingLeft=4;spacingRight=4;overflow=hidden;points=[[0,0.5],[1,0.5]];portConstraint=eastwest;rotatable=0;whiteSpace=wrap;html=1;" parent="OUtwIq7erLdHzBOknaoP-8" vertex="1">
          <mxGeometry y="150" width="140" height="30" as="geometry" />
        </mxCell>
        <mxCell id="4VH_vNqvtU9ruZNy9zTj-7" value="id_venda_veiculo FK" style="text;strokeColor=none;fillColor=none;align=left;verticalAlign=middle;spacingLeft=4;spacingRight=4;overflow=hidden;points=[[0,0.5],[1,0.5]];portConstraint=eastwest;rotatable=0;whiteSpace=wrap;html=1;" parent="OUtwIq7erLdHzBOknaoP-8" vertex="1">
          <mxGeometry y="180" width="140" height="30" as="geometry" />
        </mxCell>
        <mxCell id="OUtwIq7erLdHzBOknaoP-13" value="Item" style="swimlane;fontStyle=0;childLayout=stackLayout;horizontal=1;startSize=30;horizontalStack=0;resizeParent=1;resizeParentMax=0;resizeLast=0;collapsible=1;marginBottom=0;whiteSpace=wrap;html=1;" parent="1" vertex="1">
          <mxGeometry x="840" y="160" width="140" height="120" as="geometry" />
        </mxCell>
        <mxCell id="OUtwIq7erLdHzBOknaoP-14" value="id int PK" style="text;strokeColor=none;fillColor=none;align=left;verticalAlign=middle;spacingLeft=4;spacingRight=4;overflow=hidden;points=[[0,0.5],[1,0.5]];portConstraint=eastwest;rotatable=0;whiteSpace=wrap;html=1;" parent="OUtwIq7erLdHzBOknaoP-13" vertex="1">
          <mxGeometry y="30" width="140" height="30" as="geometry" />
        </mxCell>
        <mxCell id="OUtwIq7erLdHzBOknaoP-16" value="nome varchar" style="text;strokeColor=none;fillColor=none;align=left;verticalAlign=middle;spacingLeft=4;spacingRight=4;overflow=hidden;points=[[0,0.5],[1,0.5]];portConstraint=eastwest;rotatable=0;whiteSpace=wrap;html=1;" parent="OUtwIq7erLdHzBOknaoP-13" vertex="1">
          <mxGeometry y="60" width="140" height="30" as="geometry" />
        </mxCell>
        <mxCell id="OUtwIq7erLdHzBOknaoP-18" value="preco float" style="text;strokeColor=none;fillColor=none;align=left;verticalAlign=middle;spacingLeft=4;spacingRight=4;overflow=hidden;points=[[0,0.5],[1,0.5]];portConstraint=eastwest;rotatable=0;whiteSpace=wrap;html=1;" parent="OUtwIq7erLdHzBOknaoP-13" vertex="1">
          <mxGeometry y="90" width="140" height="30" as="geometry" />
        </mxCell>
        <mxCell id="OUtwIq7erLdHzBOknaoP-19" value="&lt;b&gt;&lt;font style=&quot;font-size: 18px;&quot;&gt;Diagrama de Classes&lt;/font&gt;&lt;/b&gt;" style="text;html=1;align=center;verticalAlign=middle;resizable=0;points=[];autosize=1;strokeColor=none;fillColor=none;" parent="1" vertex="1">
          <mxGeometry x="40" y="45" width="200" height="40" as="geometry" />
        </mxCell>
        <mxCell id="OUtwIq7erLdHzBOknaoP-24" value="Venda_Veiculo" style="swimlane;fontStyle=0;childLayout=stackLayout;horizontal=1;startSize=30;horizontalStack=0;resizeParent=1;resizeParentMax=0;resizeLast=0;collapsible=1;marginBottom=0;whiteSpace=wrap;html=1;" parent="1" vertex="1">
          <mxGeometry x="350" y="574.94" width="180" height="120" as="geometry" />
        </mxCell>
        <mxCell id="OUtwIq7erLdHzBOknaoP-25" value="id int PK" style="text;strokeColor=none;fillColor=none;align=left;verticalAlign=middle;spacingLeft=4;spacingRight=4;overflow=hidden;points=[[0,0.5],[1,0.5]];portConstraint=eastwest;rotatable=0;whiteSpace=wrap;html=1;" parent="OUtwIq7erLdHzBOknaoP-24" vertex="1">
          <mxGeometry y="30" width="180" height="30" as="geometry" />
        </mxCell>
        <mxCell id="OUtwIq7erLdHzBOknaoP-26" value="id_veiculo FK" style="text;strokeColor=none;fillColor=none;align=left;verticalAlign=middle;spacingLeft=4;spacingRight=4;overflow=hidden;points=[[0,0.5],[1,0.5]];portConstraint=eastwest;rotatable=0;whiteSpace=wrap;html=1;" parent="OUtwIq7erLdHzBOknaoP-24" vertex="1">
          <mxGeometry y="60" width="180" height="30" as="geometry" />
        </mxCell>
        <mxCell id="OUtwIq7erLdHzBOknaoP-27" value="id_venda FK" style="text;strokeColor=none;fillColor=none;align=left;verticalAlign=middle;spacingLeft=4;spacingRight=4;overflow=hidden;points=[[0,0.5],[1,0.5]];portConstraint=eastwest;rotatable=0;whiteSpace=wrap;html=1;" parent="OUtwIq7erLdHzBOknaoP-24" vertex="1">
          <mxGeometry y="90" width="180" height="30" as="geometry" />
        </mxCell>
        <mxCell id="OUtwIq7erLdHzBOknaoP-28" style="edgeStyle=orthogonalEdgeStyle;rounded=0;orthogonalLoop=1;jettySize=auto;html=1;entryX=0;entryY=0.5;entryDx=0;entryDy=0;" parent="1" source="CAf2f87rdy_Ww8BMXTLy-2" target="OUtwIq7erLdHzBOknaoP-26" edge="1">
          <mxGeometry relative="1" as="geometry" />
        </mxCell>
        <mxCell id="OUtwIq7erLdHzBOknaoP-29" value="N" style="text;html=1;align=center;verticalAlign=middle;resizable=0;points=[];autosize=1;strokeColor=none;fillColor=none;" parent="1" vertex="1">
          <mxGeometry x="285" y="770" width="30" height="30" as="geometry" />
        </mxCell>
        <mxCell id="OUtwIq7erLdHzBOknaoP-30" style="edgeStyle=orthogonalEdgeStyle;rounded=0;orthogonalLoop=1;jettySize=auto;html=1;entryX=1;entryY=0.5;entryDx=0;entryDy=0;" parent="1" source="CAf2f87rdy_Ww8BMXTLy-7" target="OUtwIq7erLdHzBOknaoP-27" edge="1">
          <mxGeometry relative="1" as="geometry" />
        </mxCell>
        <mxCell id="OUtwIq7erLdHzBOknaoP-31" value="N" style="text;html=1;align=center;verticalAlign=middle;resizable=0;points=[];autosize=1;strokeColor=none;fillColor=none;" parent="1" vertex="1">
          <mxGeometry x="550" y="770" width="30" height="30" as="geometry" />
        </mxCell>
        <mxCell id="OUtwIq7erLdHzBOknaoP-36" style="edgeStyle=orthogonalEdgeStyle;rounded=0;orthogonalLoop=1;jettySize=auto;html=1;entryX=0;entryY=0.5;entryDx=0;entryDy=0;" parent="1" source="OUtwIq7erLdHzBOknaoP-2" target="OUtwIq7erLdHzBOknaoP-10" edge="1">
          <mxGeometry relative="1" as="geometry" />
        </mxCell>
        <mxCell id="2edBjfGkzmc34Xmbdkj1-1" value="1" style="text;html=1;align=center;verticalAlign=middle;resizable=0;points=[];autosize=1;strokeColor=none;fillColor=none;" parent="1" vertex="1">
          <mxGeometry x="315" y="594.94" width="30" height="30" as="geometry" />
        </mxCell>
        <mxCell id="2edBjfGkzmc34Xmbdkj1-3" value="1" style="text;html=1;align=center;verticalAlign=middle;resizable=0;points=[];autosize=1;strokeColor=none;fillColor=none;" parent="1" vertex="1">
          <mxGeometry x="570" y="300" width="30" height="30" as="geometry" />
        </mxCell>
        <mxCell id="2edBjfGkzmc34Xmbdkj1-4" value="N" style="text;html=1;align=center;verticalAlign=middle;resizable=0;points=[];autosize=1;strokeColor=none;fillColor=none;" parent="1" vertex="1">
          <mxGeometry x="340" y="208" width="30" height="30" as="geometry" />
        </mxCell>
        <mxCell id="2edBjfGkzmc34Xmbdkj1-5" value="N" style="text;html=1;align=center;verticalAlign=middle;resizable=0;points=[];autosize=1;strokeColor=none;fillColor=none;" parent="1" vertex="1">
          <mxGeometry x="510" y="178" width="30" height="30" as="geometry" />
        </mxCell>
        <mxCell id="2edBjfGkzmc34Xmbdkj1-6" value="1" style="text;html=1;align=center;verticalAlign=middle;resizable=0;points=[];autosize=1;strokeColor=none;fillColor=none;" parent="1" vertex="1">
          <mxGeometry x="570" y="208" width="30" height="30" as="geometry" />
        </mxCell>
        <mxCell id="2edBjfGkzmc34Xmbdkj1-12" value="N" style="text;html=1;align=center;verticalAlign=middle;resizable=0;points=[];autosize=1;strokeColor=none;fillColor=none;" parent="1" vertex="1">
          <mxGeometry x="530" y="654.94" width="30" height="30" as="geometry" />
        </mxCell>
        <mxCell id="2edBjfGkzmc34Xmbdkj1-13" value="N" style="text;html=1;align=center;verticalAlign=middle;resizable=0;points=[];autosize=1;strokeColor=none;fillColor=none;" parent="1" vertex="1">
          <mxGeometry x="315" y="624.94" width="30" height="30" as="geometry" />
        </mxCell>
        <mxCell id="2edBjfGkzmc34Xmbdkj1-16" style="edgeStyle=orthogonalEdgeStyle;rounded=0;orthogonalLoop=1;jettySize=auto;html=1;entryX=1;entryY=0.5;entryDx=0;entryDy=0;" parent="1" source="OUtwIq7erLdHzBOknaoP-14" target="2edBjfGkzmc34Xmbdkj1-14" edge="1">
          <mxGeometry relative="1" as="geometry" />
        </mxCell>
        <mxCell id="jXe8uH4fgMEEkt8Xfo94-13" style="edgeStyle=orthogonalEdgeStyle;rounded=0;orthogonalLoop=1;jettySize=auto;html=1;" parent="1" source="zKj9fo13ir6DBCJWVT2b-7" target="OUtwIq7erLdHzBOknaoP-25" edge="1">
          <mxGeometry relative="1" as="geometry" />
        </mxCell>
        <mxCell id="jXe8uH4fgMEEkt8Xfo94-14" style="edgeStyle=orthogonalEdgeStyle;rounded=0;orthogonalLoop=1;jettySize=auto;html=1;" parent="1" source="zKj9fo13ir6DBCJWVT2b-6" target="OUtwIq7erLdHzBOknaoP-3" edge="1">
          <mxGeometry relative="1" as="geometry">
            <Array as="points">
              <mxPoint x="320" y="405" />
              <mxPoint x="320" y="235" />
            </Array>
          </mxGeometry>
        </mxCell>
        <mxCell id="jXe8uH4fgMEEkt8Xfo94-15" value="1" style="text;html=1;align=center;verticalAlign=middle;resizable=0;points=[];autosize=1;strokeColor=none;fillColor=none;" parent="1" vertex="1">
          <mxGeometry x="285" y="380" width="30" height="30" as="geometry" />
        </mxCell>
        <mxCell id="jXe8uH4fgMEEkt8Xfo94-16" value="1" style="text;html=1;align=center;verticalAlign=middle;resizable=0;points=[];autosize=1;strokeColor=none;fillColor=none;" parent="1" vertex="1">
          <mxGeometry x="285" y="410" width="30" height="30" as="geometry" />
        </mxCell>
        <mxCell id="jXe8uH4fgMEEkt8Xfo94-17" style="edgeStyle=orthogonalEdgeStyle;rounded=0;orthogonalLoop=1;jettySize=auto;html=1;" parent="1" source="jXe8uH4fgMEEkt8Xfo94-7" target="OUtwIq7erLdHzBOknaoP-25" edge="1">
          <mxGeometry relative="1" as="geometry" />
        </mxCell>
        <mxCell id="jXe8uH4fgMEEkt8Xfo94-18" value="1" style="text;html=1;align=center;verticalAlign=middle;resizable=0;points=[];autosize=1;strokeColor=none;fillColor=none;" parent="1" vertex="1">
          <mxGeometry x="530" y="594.94" width="30" height="30" as="geometry" />
        </mxCell>
        <mxCell id="jXe8uH4fgMEEkt8Xfo94-20" value="N" style="text;html=1;align=center;verticalAlign=middle;resizable=0;points=[];autosize=1;strokeColor=none;fillColor=none;" parent="1" vertex="1">
          <mxGeometry x="810" y="180" width="30" height="30" as="geometry" />
        </mxCell>
        <mxCell id="jXe8uH4fgMEEkt8Xfo94-21" value="1" style="text;html=1;align=center;verticalAlign=middle;resizable=0;points=[];autosize=1;strokeColor=none;fillColor=none;" parent="1" vertex="1">
          <mxGeometry x="740" y="238" width="30" height="30" as="geometry" />
        </mxCell>
        <mxCell id="jXe8uH4fgMEEkt8Xfo94-22" style="edgeStyle=orthogonalEdgeStyle;rounded=0;orthogonalLoop=1;jettySize=auto;html=1;" parent="1" source="zKj9fo13ir6DBCJWVT2b-2" target="OUtwIq7erLdHzBOknaoP-25" edge="1">
          <mxGeometry relative="1" as="geometry" />
        </mxCell>
        <mxCell id="jXe8uH4fgMEEkt8Xfo94-23" value="1" style="text;html=1;align=center;verticalAlign=middle;resizable=0;points=[];autosize=1;strokeColor=none;fillColor=none;" parent="1" vertex="1">
          <mxGeometry x="710" y="594.94" width="30" height="30" as="geometry" />
        </mxCell>
      </root>
    </mxGraphModel>
  </diagram>
</mxfile>
